<svg xmlns="http://www.w3.org/2000/svg" viewBox="0 0 600 400" role="img" aria-labelledby="title desc">
  <title id="title">Go board</title>
  <desc id="desc">Stylized Go board with stones</desc>
  <rect width="600" height="400" rx="24" fill="#111827" />
  <g stroke="#374151" stroke-width="2">
    <path d="M80 60H520" />
    <path d="M80 110H520" />
    <path d="M80 160H520" />
    <path d="M80 210H520" />
    <path d="M80 260H520" />
    <path d="M80 310H520" />
    <path d="M80 360H520" />
    <path d="M80 60V360" />
    <path d="M150 60V360" />
    <path d="M220 60V360" />
    <path d="M290 60V360" />
    <path d="M360 60V360" />
    <path d="M430 60V360" />
    <path d="M500 60V360" />
  </g>
  <g>
    <circle cx="150" cy="160" r="18" fill="#ffffff" />
    <circle cx="290" cy="210" r="18" fill="#ffffff" />
    <circle cx="430" cy="110" r="18" fill="#ffffff" />
    <circle cx="220" cy="310" r="18" fill="#111827" stroke="#f9fafb" stroke-width="2" />
    <circle cx="360" cy="260" r="18" fill="#111827" stroke="#f9fafb" stroke-width="2" />
  </g>
</svg>
